<?xml version="1.0" standalone="no"?>
<!DOCTYPE svg PUBLIC "-//W3C//DTD SVG 20010904//EN"
 "http://www.w3.org/TR/2001/REC-SVG-20010904/DTD/svg10.dtd">
<svg version="1.0" xmlns="http://www.w3.org/2000/svg"
 width="310.000000pt" height="229.000000pt" viewBox="0 0 310.000000 229.000000"
 preserveAspectRatio="xMidYMid meet">

<g transform="translate(0.000000,229.000000) scale(0.100000,-0.100000)"
fill="#000000" stroke="none">
<path d="M266 2175 c-58 -22 -102 -60 -133 -113 -24 -40 -28 -58 -28 -123 0
-67 4 -81 30 -125 76 -122 230 -159 349 -84 155 98 151 326 -6 423 -58 36
-151 45 -212 22z"/>
<path d="M719 2163 c6 -10 199 -335 429 -723 l418 -705 581 -3 c548 -2 582 -1
587 15 3 10 84 329 181 708 97 380 178 698 181 708 5 16 -56 17 -1191 17
-1136 0 -1195 -1 -1186 -17z m2011 -90 c0 -9 -284 -1110 -306 -1190 l-15 -53
-392 0 -392 1 -335 566 c-184 311 -350 592 -368 624 l-34 59 921 0 c507 0 921
-3 921 -7z m234 -20 c-4 -16 -75 -296 -159 -623 l-152 -595 -66 -3 c-47 -2
-67 1 -67 9 0 11 305 1197 315 1227 3 8 26 12 70 12 l65 0 -6 -27z"/>
<path d="M535 1677 c-156 -52 -262 -182 -273 -337 -14 -206 140 -383 348 -398
206 -14 383 140 398 348 15 209 -147 388 -358 397 -44 2 -91 -3 -115 -10z
m188 -103 c26 -9 69 -36 96 -60 116 -105 120 -283 9 -391 -56 -54 -99 -74
-168 -80 -156 -14 -300 116 -300 271 0 184 189 320 363 260z"/>
<path d="M863 986 c-181 -44 -334 -202 -372 -384 -65 -310 179 -605 497 -601
270 2 494 234 491 507 -3 314 -310 552 -616 478z m281 -124 c207 -97 291 -331
194 -539 -28 -61 -119 -152 -181 -182 -200 -97 -435 -15 -534 187 -36 72 -38
81 -38 171 0 87 3 102 32 163 40 85 97 147 172 186 78 42 122 52 213 48 61 -3
92 -11 142 -34z"/>
<path d="M1729 675 c-151 -48 -250 -195 -236 -351 11 -119 76 -213 185 -266
l67 -33 385 0 c382 0 385 0 431 23 75 37 125 87 161 160 30 60 33 75 32 152 0
67 -5 95 -23 131 -36 75 -86 125 -159 161 l-67 33 -365 2 c-295 2 -374 -1
-411 -12z m760 -95 c54 -15 110 -59 139 -109 22 -38 27 -58 27 -117 0 -61 -4
-77 -30 -120 -19 -30 -49 -60 -79 -79 l-49 -30 -371 0 -371 0 -48 28 c-174
102 -142 369 51 427 39 12 690 12 731 0z"/>
</g>
</svg>
